<svg xmlns="http://www.w3.org/2000/svg" xmlns:xlink="http://www.w3.org/1999/xlink" width="100" zoomAndPan="magnify" viewBox="0 0 375 149.999998" height="70" preserveAspectRatio="xMidYMid meet" version="1.0"><defs><g/><clipPath id="97233663e3"><path d="M 291.707031 58.652344 L 327.601562 58.652344 L 327.601562 91.488281 L 291.707031 91.488281 Z M 291.707031 58.652344 " clip-rule="nonzero"/></clipPath></defs><g clip-path="url(#97233663e3)"><path fill="#4e73df" d="M 309.65625 76.429688 C 308.015625 76.429688 306.710938 75.089844 306.710938 73.488281 C 306.710938 71.847656 308.054688 70.546875 309.65625 70.546875 C 311.292969 70.546875 312.597656 71.886719 312.597656 73.488281 C 312.597656 75.089844 311.292969 76.429688 309.65625 76.429688 Z M 326.722656 75.050781 L 311.222656 59.589844 C 310.363281 58.730469 308.949219 58.730469 308.089844 59.589844 L 292.589844 75.050781 C 291.734375 75.910156 291.734375 77.328125 292.589844 78.183594 C 293.445312 79.039062 294.863281 79.039062 295.71875 78.183594 L 297.621094 76.285156 L 297.621094 88.652344 C 297.621094 90.109375 298.8125 91.300781 300.265625 91.300781 L 307.609375 91.300781 L 307.609375 85.96875 L 306.710938 85.96875 C 306.113281 85.96875 305.632812 85.484375 305.632812 84.890625 L 305.632812 81.164062 C 305.632812 79.078125 307.347656 77.402344 309.394531 77.402344 L 309.765625 77.402344 C 311.855469 77.402344 313.53125 79.113281 313.53125 81.164062 L 313.53125 84.890625 C 313.53125 85.484375 313.042969 85.96875 312.449219 85.96875 L 311.554688 85.96875 L 311.554688 91.300781 L 318.894531 91.300781 C 320.347656 91.300781 321.542969 90.105469 321.542969 88.652344 L 321.542969 76.320312 L 323.445312 78.21875 C 323.890625 78.664062 324.449219 78.855469 325.007812 78.855469 C 325.566406 78.855469 326.164062 78.632812 326.570312 78.21875 C 327.578125 77.363281 327.578125 75.949219 326.722656 75.050781 " fill-opacity="1" fill-rule="nonzero"/></g><g fill="#000000" fill-opacity="1"><g transform="translate(13.753773, 89.510389)"><g><path d="M 28.625 -44.390625 L 28.625 -35.515625 L 13.34375 -35.515625 L 13.34375 -26.6875 L 27.984375 -26.6875 L 27.984375 -17.8125 L 13.34375 -17.8125 L 13.34375 -8.875 L 28.625 -8.875 L 28.625 0 L 3.234375 0 L 3.234375 -44.390625 Z M 28.625 -44.390625 "/></g></g></g><g fill="#000000" fill-opacity="1"><g transform="translate(41.738671, 89.510389)"><g><path d="M 3.234375 0 L 3.234375 -27.609375 L 12.75 -27.609375 L 12.75 -24.703125 L 12.859375 -24.703125 C 15.335938 -27.171875 17.972656 -28.40625 20.765625 -28.40625 C 22.773438 -28.40625 24.660156 -27.992188 26.421875 -27.171875 C 28.179688 -26.347656 29.507812 -25.078125 30.40625 -23.359375 C 33.195312 -26.722656 36.242188 -28.40625 39.546875 -28.40625 C 42.492188 -28.40625 45.023438 -27.582031 47.140625 -25.9375 C 49.253906 -24.289062 50.3125 -21.707031 50.3125 -18.1875 L 50.3125 0 L 40.796875 0 L 40.796875 -15.609375 C 40.796875 -17.078125 40.390625 -18.300781 39.578125 -19.28125 C 38.773438 -20.269531 37.566406 -20.765625 35.953125 -20.765625 C 34.546875 -20.765625 33.472656 -20.34375 32.734375 -19.5 C 32.003906 -18.664062 31.601562 -17.65625 31.53125 -16.46875 L 31.53125 0 L 22.015625 0 L 22.015625 -15.609375 C 22.015625 -17.078125 21.609375 -18.300781 20.796875 -19.28125 C 19.992188 -20.269531 18.785156 -20.765625 17.171875 -20.765625 C 15.691406 -20.765625 14.582031 -20.304688 13.84375 -19.390625 C 13.113281 -18.484375 12.75 -17.398438 12.75 -16.140625 L 12.75 0 Z M 3.234375 0 "/></g></g></g><g fill="#000000" fill-opacity="1"><g transform="translate(91.519564, 89.510389)"><g><path d="M 31.15625 -12.484375 L 11.140625 -12.484375 C 11.140625 -10.546875 11.765625 -9.109375 13.015625 -8.171875 C 14.273438 -7.242188 15.640625 -6.78125 17.109375 -6.78125 C 18.648438 -6.78125 19.867188 -6.984375 20.765625 -7.390625 C 21.660156 -7.804688 22.6875 -8.625 23.84375 -9.84375 L 30.734375 -6.40625 C 27.859375 -1.59375 23.082031 0.8125 16.40625 0.8125 C 12.25 0.8125 8.679688 -0.613281 5.703125 -3.46875 C 2.722656 -6.320312 1.234375 -9.753906 1.234375 -13.765625 C 1.234375 -17.785156 2.722656 -21.226562 5.703125 -24.09375 C 8.679688 -26.96875 12.25 -28.40625 16.40625 -28.40625 C 20.789062 -28.40625 24.351562 -27.140625 27.09375 -24.609375 C 29.84375 -22.085938 31.21875 -18.476562 31.21875 -13.78125 C 31.21875 -13.132812 31.195312 -12.703125 31.15625 -12.484375 Z M 11.40625 -17.765625 L 21.90625 -17.765625 C 21.6875 -19.191406 21.117188 -20.289062 20.203125 -21.0625 C 19.285156 -21.832031 18.113281 -22.21875 16.6875 -22.21875 C 15.101562 -22.21875 13.84375 -21.804688 12.90625 -20.984375 C 11.976562 -20.160156 11.476562 -19.085938 11.40625 -17.765625 Z M 11.40625 -17.765625 "/></g></g></g><g fill="#000000" fill-opacity="1"><g transform="translate(120.742256, 89.510389)"><g><path d="M 3.234375 0 L 3.234375 -27.609375 L 12.75 -27.609375 L 12.75 -23.625 L 12.859375 -23.625 C 12.929688 -23.769531 13.046875 -23.945312 13.203125 -24.15625 C 13.367188 -24.375 13.71875 -24.75 14.25 -25.28125 C 14.789062 -25.820312 15.363281 -26.304688 15.96875 -26.734375 C 16.582031 -27.171875 17.375 -27.554688 18.34375 -27.890625 C 19.3125 -28.234375 20.300781 -28.40625 21.3125 -28.40625 C 22.351562 -28.40625 23.375 -28.257812 24.375 -27.96875 C 25.382812 -27.6875 26.117188 -27.40625 26.578125 -27.125 L 27.34375 -26.6875 L 23.359375 -18.625 C 22.171875 -19.625 20.519531 -20.125 18.40625 -20.125 C 17.257812 -20.125 16.269531 -19.875 15.4375 -19.375 C 14.613281 -18.875 14.03125 -18.265625 13.6875 -17.546875 C 13.351562 -16.828125 13.113281 -16.210938 12.96875 -15.703125 C 12.820312 -15.203125 12.75 -14.8125 12.75 -14.53125 L 12.75 0 Z M 3.234375 0 "/></g></g></g><g fill="#000000" fill-opacity="1"><g transform="translate(144.314141, 89.510389)"><g><path d="M 1.984375 6.78125 L 9.796875 2.953125 C 11.234375 5.328125 13.726562 6.515625 17.28125 6.515625 C 18.925781 6.515625 20.457031 5.984375 21.875 4.921875 C 23.289062 3.867188 24 2.242188 24 0.046875 L 24 -1.984375 C 22.3125 -0.117188 19.296875 0.8125 14.953125 0.8125 C 10.972656 0.8125 7.691406 -0.59375 5.109375 -3.40625 C 2.523438 -6.226562 1.234375 -9.679688 1.234375 -13.765625 C 1.234375 -17.859375 2.523438 -21.320312 5.109375 -24.15625 C 7.691406 -26.988281 10.972656 -28.40625 14.953125 -28.40625 C 18.503906 -28.40625 21.46875 -27.3125 23.84375 -25.125 L 24 -25.125 L 24 -27.609375 L 33.53125 -27.609375 L 33.53125 0.75 C 33.53125 5.238281 32.039062 8.703125 29.0625 11.140625 C 26.082031 13.578125 22.15625 14.796875 17.28125 14.796875 C 9.382812 14.796875 4.285156 12.125 1.984375 6.78125 Z M 13.203125 -18.453125 C 11.972656 -17.234375 11.359375 -15.671875 11.359375 -13.765625 C 11.359375 -11.867188 11.945312 -10.316406 13.125 -9.109375 C 14.3125 -7.910156 15.875 -7.3125 17.8125 -7.3125 C 19.675781 -7.3125 21.207031 -7.921875 22.40625 -9.140625 C 23.613281 -10.367188 24.21875 -11.914062 24.21875 -13.78125 C 24.21875 -15.675781 23.597656 -17.234375 22.359375 -18.453125 C 21.117188 -19.671875 19.601562 -20.28125 17.8125 -20.28125 C 15.976562 -20.28125 14.441406 -19.671875 13.203125 -18.453125 Z M 13.203125 -18.453125 "/></g></g></g><g fill="#000000" fill-opacity="1"><g transform="translate(177.842216, 89.510389)"><g><path d="M 31.15625 -12.484375 L 11.140625 -12.484375 C 11.140625 -10.546875 11.765625 -9.109375 13.015625 -8.171875 C 14.273438 -7.242188 15.640625 -6.78125 17.109375 -6.78125 C 18.648438 -6.78125 19.867188 -6.984375 20.765625 -7.390625 C 21.660156 -7.804688 22.6875 -8.625 23.84375 -9.84375 L 30.734375 -6.40625 C 27.859375 -1.59375 23.082031 0.8125 16.40625 0.8125 C 12.25 0.8125 8.679688 -0.613281 5.703125 -3.46875 C 2.722656 -6.320312 1.234375 -9.753906 1.234375 -13.765625 C 1.234375 -17.785156 2.722656 -21.226562 5.703125 -24.09375 C 8.679688 -26.96875 12.25 -28.40625 16.40625 -28.40625 C 20.789062 -28.40625 24.351562 -27.140625 27.09375 -24.609375 C 29.84375 -22.085938 31.21875 -18.476562 31.21875 -13.78125 C 31.21875 -13.132812 31.195312 -12.703125 31.15625 -12.484375 Z M 11.40625 -17.765625 L 21.90625 -17.765625 C 21.6875 -19.191406 21.117188 -20.289062 20.203125 -21.0625 C 19.285156 -21.832031 18.113281 -22.21875 16.6875 -22.21875 C 15.101562 -22.21875 13.84375 -21.804688 12.90625 -20.984375 C 11.976562 -20.160156 11.476562 -19.085938 11.40625 -17.765625 Z M 11.40625 -17.765625 "/></g></g></g><g fill="#000000" fill-opacity="1"><g transform="translate(207.064908, 89.510389)"><g><path d="M 3.234375 0 L 3.234375 -27.609375 L 12.75 -27.609375 L 12.75 -24.703125 L 12.859375 -24.703125 C 15.335938 -27.171875 17.972656 -28.40625 20.765625 -28.40625 C 22.128906 -28.40625 23.484375 -28.226562 24.828125 -27.875 C 26.179688 -27.519531 27.472656 -26.960938 28.703125 -26.203125 C 29.941406 -25.453125 30.945312 -24.382812 31.71875 -23 C 32.488281 -21.625 32.875 -20.019531 32.875 -18.1875 L 32.875 0 L 23.359375 0 L 23.359375 -15.609375 C 23.359375 -17.046875 22.898438 -18.300781 21.984375 -19.375 C 21.066406 -20.445312 19.875 -20.984375 18.40625 -20.984375 C 16.96875 -20.984375 15.664062 -20.425781 14.5 -19.3125 C 13.332031 -18.207031 12.75 -16.972656 12.75 -15.609375 L 12.75 0 Z M 3.234375 0 "/></g></g></g><g fill="#000000" fill-opacity="1"><g transform="translate(239.409006, 89.510389)"><g><path d="M 19.59375 -45.203125 C 21.988281 -45.203125 24.332031 -44.851562 26.625 -44.15625 C 28.925781 -43.457031 30.632812 -42.765625 31.75 -42.078125 L 33.359375 -41 L 29.28125 -32.9375 C 28.957031 -33.144531 28.503906 -33.421875 27.921875 -33.765625 C 27.347656 -34.109375 26.269531 -34.566406 24.6875 -35.140625 C 23.113281 -35.710938 21.644531 -36 20.28125 -36 C 18.601562 -36 17.304688 -35.640625 16.390625 -34.921875 C 15.472656 -34.203125 15.015625 -33.234375 15.015625 -32.015625 C 15.015625 -31.410156 15.226562 -30.847656 15.65625 -30.328125 C 16.09375 -29.804688 16.828125 -29.25 17.859375 -28.65625 C 18.898438 -28.0625 19.816406 -27.582031 20.609375 -27.21875 C 21.398438 -26.863281 22.617188 -26.328125 24.265625 -25.609375 C 27.140625 -24.390625 29.585938 -22.726562 31.609375 -20.625 C 33.640625 -18.53125 34.65625 -16.15625 34.65625 -13.5 C 34.65625 -10.957031 34.195312 -8.734375 33.28125 -6.828125 C 32.363281 -4.929688 31.109375 -3.441406 29.515625 -2.359375 C 27.921875 -1.285156 26.15625 -0.488281 24.21875 0.03125 C 22.28125 0.550781 20.179688 0.8125 17.921875 0.8125 C 15.984375 0.8125 14.082031 0.613281 12.21875 0.21875 C 10.351562 -0.175781 8.789062 -0.671875 7.53125 -1.265625 C 6.28125 -1.859375 5.148438 -2.441406 4.140625 -3.015625 C 3.140625 -3.585938 2.40625 -4.070312 1.9375 -4.46875 L 1.234375 -5.0625 L 6.296875 -13.5625 C 6.722656 -13.195312 7.3125 -12.738281 8.0625 -12.1875 C 8.820312 -11.632812 10.160156 -10.890625 12.078125 -9.953125 C 13.992188 -9.023438 15.691406 -8.5625 17.171875 -8.5625 C 21.429688 -8.5625 23.5625 -10.015625 23.5625 -12.921875 C 23.5625 -13.523438 23.410156 -14.085938 23.109375 -14.609375 C 22.804688 -15.128906 22.269531 -15.648438 21.5 -16.171875 C 20.726562 -16.691406 20.046875 -17.101562 19.453125 -17.40625 C 18.859375 -17.707031 17.890625 -18.171875 16.546875 -18.796875 C 15.203125 -19.429688 14.207031 -19.910156 13.5625 -20.234375 C 10.875 -21.554688 8.789062 -23.210938 7.3125 -25.203125 C 5.84375 -27.203125 5.109375 -29.347656 5.109375 -31.640625 C 5.109375 -35.617188 6.578125 -38.875 9.515625 -41.40625 C 12.460938 -43.9375 15.820312 -45.203125 19.59375 -45.203125 Z M 19.59375 -45.203125 "/></g></g></g><g fill="#000000" fill-opacity="1"><g transform="translate(272.345086, 89.510389)"><g><path d="M 4.84375 -27.609375 L 4.84375 -37.890625 L 14.375 -37.890625 L 14.375 -27.609375 L 20.1875 -27.609375 L 20.1875 -20.34375 L 14.375 -20.34375 L 14.375 -11.5625 C 14.375 -9.019531 15.085938 -7.75 16.515625 -7.75 C 16.878906 -7.75 17.257812 -7.816406 17.65625 -7.953125 C 18.050781 -8.097656 18.351562 -8.242188 18.5625 -8.390625 L 18.890625 -8.609375 L 21.25 -0.921875 C 19.207031 0.234375 16.878906 0.8125 14.265625 0.8125 C 12.460938 0.8125 10.914062 0.5 9.625 -0.125 C 8.332031 -0.757812 7.351562 -1.601562 6.6875 -2.65625 C 6.03125 -3.71875 5.554688 -4.832031 5.265625 -6 C 4.984375 -7.164062 4.84375 -8.410156 4.84375 -9.734375 L 4.84375 -20.34375 L 0.859375 -20.34375 L 0.859375 -27.609375 Z M 4.84375 -27.609375 "/></g></g></g><g fill="#000000" fill-opacity="1"><g transform="translate(322.826337, 89.510389)"><g><path d="M 24.15625 -27.609375 L 35.140625 -27.609375 L 13.453125 13.984375 L 2.46875 13.984375 L 12 -4.3125 L -1.078125 -27.609375 L 9.90625 -27.609375 L 17.59375 -13.453125 Z M 24.15625 -27.609375 "/></g></g></g></svg>